<svg width="141" height="31" viewBox="0 0 141 31" fill="none" xmlns="http://www.w3.org/2000/svg">
<path fill-rule="evenodd" clip-rule="evenodd" d="M2.06413 15.0975C0.131371 14.9855 -0.662827 13.5298 0.637849 12.4463C2.26376 11.092 4.82772 9.11138 8.7458 6.42305C14.0643 2.77383 17.7192 1.08079 19.7111 0.324457C20.8503 -0.108098 22.1509 -0.108162 23.2901 0.324323C25.2822 1.08059 28.9374 2.77362 34.2553 6.42305C38.1721 9.11103 40.7359 11.0914 42.3619 12.4458C43.6629 13.5294 42.8687 14.9855 40.9356 15.0975C39.9729 15.1533 38.7987 15.2101 37.3764 15.2628C37.3849 15.3404 37.3892 15.419 37.3892 15.4983V21.8409C37.3892 24.9696 37.1906 27.1823 36.9968 28.5961C36.8343 29.7825 35.585 30.655 34.0063 30.7358C31.6231 30.8578 27.548 31 21.4996 31C15.4511 31 11.3761 30.8578 8.99284 30.7358C7.41419 30.655 6.16489 29.7825 6.00232 28.5961C5.80859 27.1823 5.60993 24.9696 5.60993 21.8409V15.4983C5.60993 15.419 5.61428 15.3403 5.62279 15.2627C4.20066 15.2101 3.02666 15.1533 2.06413 15.0975Z" fill="#A6CFFF"/>
<path fill-rule="evenodd" clip-rule="evenodd" d="M28.9447 30.9181C28.9647 29.757 28.9771 28.251 28.9771 27.2425C28.9771 24.9146 28.9115 23.3394 28.8368 22.2994C28.7525 21.1278 27.7885 20.1507 26.1441 19.9563C25.0617 19.8283 23.5559 19.7273 21.4996 19.7273C19.4433 19.7273 17.9375 19.8283 16.855 19.9563C15.2106 20.1507 14.2467 21.1278 14.1624 22.2994C14.0876 23.3394 14.0221 24.9146 14.0221 27.2425C14.0221 28.251 14.0344 29.757 14.0544 30.9181C16.0926 30.9665 18.5636 31 21.4996 31C24.4355 31 26.9065 30.9665 28.9447 30.9181Z" fill="#1575E5"/>
<path d="M54.807 27.216C54.249 27.216 53.817 27.063 53.511 26.757C53.223 26.433 53.079 25.992 53.079 25.434V9.531C53.079 8.955 53.223 8.514 53.511 8.208C53.817 7.902 54.249 7.749 54.807 7.749C55.365 7.749 55.788 7.902 56.076 8.208C56.382 8.514 56.535 8.955 56.535 9.531V15.903H66.336V9.531C66.336 8.955 66.48 8.514 66.768 8.208C67.074 7.902 67.506 7.749 68.064 7.749C68.622 7.749 69.045 7.902 69.333 8.208C69.639 8.514 69.792 8.955 69.792 9.531V25.434C69.792 25.992 69.639 26.433 69.333 26.757C69.045 27.063 68.622 27.216 68.064 27.216C67.506 27.216 67.074 27.063 66.768 26.757C66.48 26.433 66.336 25.992 66.336 25.434V18.792H56.535V25.434C56.535 25.992 56.391 26.433 56.103 26.757C55.815 27.063 55.383 27.216 54.807 27.216ZM82.4938 27.27C80.6578 27.27 79.0468 26.865 77.6608 26.055C76.2928 25.245 75.2308 24.111 74.4748 22.653C73.7188 21.177 73.3408 19.449 73.3408 17.469C73.3408 15.975 73.5568 14.634 73.9888 13.446C74.4208 12.24 75.0328 11.214 75.8248 10.368C76.6348 9.504 77.5978 8.847 78.7138 8.397C79.8478 7.929 81.1078 7.695 82.4938 7.695C84.3478 7.695 85.9588 8.1 87.3268 8.91C88.6948 9.702 89.7568 10.827 90.5128 12.285C91.2688 13.743 91.6468 15.462 91.6468 17.442C91.6468 18.936 91.4308 20.286 90.9988 21.492C90.5668 22.698 89.9458 23.733 89.1358 24.597C88.3438 25.461 87.3808 26.127 86.2468 26.595C85.1308 27.045 83.8798 27.27 82.4938 27.27ZM82.4938 24.3C83.6638 24.3 84.6538 24.03 85.4638 23.49C86.2918 22.95 86.9218 22.167 87.3538 21.141C87.8038 20.115 88.0288 18.891 88.0288 17.469C88.0288 15.309 87.5428 13.635 86.5708 12.447C85.6168 11.259 84.2578 10.665 82.4938 10.665C81.3418 10.665 80.3518 10.935 79.5238 11.475C78.6958 11.997 78.0568 12.771 77.6068 13.797C77.1748 14.805 76.9588 16.029 76.9588 17.469C76.9588 19.611 77.4448 21.285 78.4168 22.491C79.3888 23.697 80.7478 24.3 82.4938 24.3ZM96.781 27.216C96.277 27.216 95.89 27.072 95.62 26.784C95.35 26.496 95.215 26.1 95.215 25.596V9.369C95.215 8.847 95.359 8.451 95.647 8.181C95.935 7.893 96.331 7.749 96.835 7.749C97.285 7.749 97.636 7.839 97.888 8.019C98.158 8.181 98.401 8.469 98.617 8.883L105.286 21.222H104.422L111.091 8.883C111.307 8.469 111.541 8.181 111.793 8.019C112.045 7.839 112.396 7.749 112.846 7.749C113.35 7.749 113.737 7.893 114.007 8.181C114.277 8.451 114.412 8.847 114.412 9.369V25.596C114.412 26.1 114.277 26.496 114.007 26.784C113.755 27.072 113.368 27.216 112.846 27.216C112.342 27.216 111.955 27.072 111.685 26.784C111.415 26.496 111.28 26.1 111.28 25.596V13.095H111.874L106.204 23.436C106.024 23.742 105.835 23.967 105.637 24.111C105.439 24.255 105.169 24.327 104.827 24.327C104.485 24.327 104.206 24.255 103.99 24.111C103.774 23.949 103.585 23.724 103.423 23.436L97.699 13.068H98.347V25.596C98.347 26.1 98.212 26.496 97.942 26.784C97.69 27.072 97.303 27.216 96.781 27.216ZM120.329 27.216C119.771 27.216 119.339 27.063 119.033 26.757C118.745 26.433 118.601 25.992 118.601 25.434V9.531C118.601 8.955 118.745 8.514 119.033 8.208C119.339 7.902 119.771 7.749 120.329 7.749C120.887 7.749 121.31 7.902 121.598 8.208C121.904 8.514 122.057 8.955 122.057 9.531V25.434C122.057 25.992 121.913 26.433 121.625 26.757C121.337 27.063 120.905 27.216 120.329 27.216ZM128.058 27C127.464 27 127.005 26.847 126.681 26.541C126.375 26.217 126.222 25.758 126.222 25.164V9.801C126.222 9.207 126.375 8.757 126.681 8.451C127.005 8.127 127.464 7.965 128.058 7.965H137.697C138.147 7.965 138.489 8.082 138.723 8.316C138.975 8.55 139.101 8.883 139.101 9.315C139.101 9.765 138.975 10.116 138.723 10.368C138.489 10.602 138.147 10.719 137.697 10.719H129.543V15.957H137.103C137.571 15.957 137.922 16.074 138.156 16.308C138.39 16.542 138.507 16.884 138.507 17.334C138.507 17.784 138.39 18.126 138.156 18.36C137.922 18.594 137.571 18.711 137.103 18.711H129.543V24.246H137.697C138.147 24.246 138.489 24.363 138.723 24.597C138.975 24.831 139.101 25.173 139.101 25.623C139.101 26.073 138.975 26.415 138.723 26.649C138.489 26.883 138.147 27 137.697 27H128.058Z" fill="black"/>
</svg>
