<svg width="60" height="52" viewBox="0 0 60 52" fill="none" xmlns="http://www.w3.org/2000/svg">
<path d="M30.5126 12.2409C30.3891 12.6531 30.6253 13.0855 31.0379 13.2079L31.13 13.2352L31.1345 13.2301C31.5175 13.2932 31.8955 13.0637 32.0084 12.6844C33.0151 9.31854 36.1872 6.96629 39.7219 6.96629C40.1522 6.96629 40.5024 6.61885 40.5024 6.18891C40.5024 5.75895 40.1522 5.41152 39.7219 5.41152C35.3581 5.41152 31.6904 8.30265 30.5126 12.2409ZM30.5126 12.2409L30.6563 12.2839M30.5126 12.2409C30.5126 12.2409 30.5126 12.2409 30.5126 12.2409L30.6563 12.2839M30.6563 12.2839C30.5568 12.616 30.7469 12.9651 31.0806 13.0641L30.6563 12.2839Z" fill="#483EA8" stroke="#F9FFF9" stroke-width="0.3"/>
<path d="M48.5481 36.9306H44.7652C44.4171 36.9306 44.1347 36.6496 44.1347 36.3032C44.1347 35.9568 44.4171 35.6758 44.7652 35.6758H48.5481C53.7626 35.6758 58.0054 31.454 58.0054 26.2652C58.0054 21.0764 53.7626 16.8546 48.5481 16.8546H48.4571C48.2743 16.8546 48.1004 16.7757 47.9806 16.6381C47.8608 16.5005 47.8068 16.3181 47.8329 16.138C47.8892 15.7472 47.9176 15.3547 47.9176 14.9724C47.9176 10.4755 44.2404 6.81649 39.7212 6.81649C37.963 6.81649 36.2864 7.3632 34.8722 8.39791C34.5615 8.62512 34.1201 8.52429 33.9404 8.18416C29.9355 0.595619 19.4751 -0.423444 14.0518 6.17792C11.7672 8.95898 10.8696 12.5767 11.5889 16.1026C11.6682 16.492 11.3687 16.855 10.971 16.855H10.7184C5.50381 16.855 1.26104 21.0769 1.26104 26.2657C1.26104 31.4545 5.50381 35.6763 10.7184 35.6763H14.5012C14.8494 35.6763 15.1317 35.9573 15.1317 36.3037C15.1317 36.6501 14.8494 36.9311 14.5012 36.9311H10.7184C4.80839 36.9311 0 32.1464 0 26.2656C0 20.5498 4.54218 15.8695 10.2234 15.6114C9.68976 11.9533 10.7103 8.26345 13.0755 5.38385C18.8818 -1.68443 30.0092 -0.89217 34.713 6.98948C36.2136 6.05334 37.9308 5.56224 39.721 5.56224C45.1963 5.56224 49.535 10.1995 49.1554 15.6173C54.7843 15.9314 59.2662 20.587 59.2662 26.2652C59.2662 32.1464 54.4578 36.9306 48.5478 36.9306L48.5481 36.9306Z" fill="#483EA8"/>
<path d="M13.6361 35.9488C13.6361 44.6809 20.7751 51.7834 29.5485 51.7834C38.3221 51.7834 45.4609 44.6807 45.4609 35.9488C45.4609 27.2167 38.3221 20.1142 29.5485 20.1142C20.7749 20.1142 13.6361 27.2168 13.6361 35.9488ZM15.1974 35.9488C15.1974 28.076 21.6348 21.6692 29.5485 21.6692C37.4622 21.6692 43.8997 28.0759 43.8997 35.9488C43.8997 43.8215 37.4622 50.2283 29.5485 50.2283C21.6349 50.2283 15.1974 43.8217 15.1974 35.9488Z" fill="#483EA8" stroke="#F9FFF9" stroke-width="0.3"/>
<path d="M29.2255 42.2628C29.2255 42.6 29.5001 42.8721 29.8371 42.8721C30.174 42.8721 30.4487 42.6004 30.4487 42.2628V30.3206C30.4487 29.9835 30.1741 29.7113 29.8371 29.7113C29.5001 29.7113 29.2255 29.9835 29.2255 30.3206V42.2628Z" fill="#483EA8" stroke="#483EA8" stroke-width="0.3"/>
<path d="M33.0975 34.4278C33.2168 34.5465 33.3737 34.6059 33.5297 34.6059L26.5766 34.4277L29.837 31.1834L33.0975 34.4278ZM25.7121 34.4278C25.9509 34.6654 26.3379 34.6655 26.5765 34.4278H33.9619C34.2011 34.1897 34.2011 33.8036 33.9619 33.5655L30.2692 29.8911C30.0304 29.6535 29.6434 29.6533 29.4048 29.8911C29.4047 29.8911 29.4047 29.8911 29.4047 29.8912L25.7121 33.5655C25.4728 33.8036 25.4728 34.1897 25.7121 34.4278Z" fill="#483EA8" stroke="#483EA8" stroke-width="0.3"/>
</svg>