<svg width="35" height="34" viewBox="0 0 35 34" fill="none" xmlns="http://www.w3.org/2000/svg">
<path d="M32.6415 17.3304C32.6415 16.1073 32.5403 15.2148 32.3211 14.2893H18.0701V19.8095H26.4351C26.2665 21.1813 25.3558 23.2473 23.332 24.6356L23.3036 24.8204L27.8095 28.2412L28.1217 28.2718C30.9887 25.6769 32.6415 21.8589 32.6415 17.3304" fill="#4285F4"/>
<path d="M18.0692 31.875C22.1673 31.875 25.6077 30.5527 28.1207 28.2719L23.331 24.6357C22.0493 25.5117 20.329 26.1232 18.0692 26.1232C14.0553 26.1232 10.6486 23.5284 9.43422 19.9418L9.25621 19.9566L4.57093 23.5102L4.50966 23.6771C7.00565 28.5363 12.1326 31.875 18.0692 31.875Z" fill="#34A853"/>
<path d="M9.43509 19.9419C9.11467 19.0164 8.92922 18.0246 8.92922 17C8.92922 15.9752 9.11467 14.9835 9.41824 14.058L9.40975 13.8609L4.66574 10.2503L4.51052 10.3227C3.4818 12.3391 2.89152 14.6034 2.89152 17C2.89152 19.3965 3.4818 21.6607 4.51052 23.6771L9.43509 19.9419" fill="#FBBC05"/>
<path d="M18.0692 7.87663C20.9194 7.87663 22.842 9.08315 23.9383 10.0914L28.222 5.9925C25.5911 3.59598 22.1674 2.125 18.0692 2.125C12.1327 2.125 7.00567 5.46358 4.50966 10.3227L9.41739 14.058C10.6486 10.4715 14.0554 7.87663 18.0692 7.87663" fill="#EB4335"/>
</svg>
