<svg width="24" height="24" viewBox="0 0 24 24" fill="none" xmlns="http://www.w3.org/2000/svg">
<path d="M9.00003 8.25003C8.58582 8.25003 8.25003 8.58582 8.25003 9.00003C8.25003 9.41425 8.58582 9.75003 9.00003 9.75003H15C15.4142 9.75003 15.75 9.41425 15.75 9.00003C15.75 8.58582 15.4142 8.25003 15 8.25003H9.00003Z" fill="#2D264B"/>
<path fill-rule="evenodd" clip-rule="evenodd" d="M11.8382 2.25002C10.1319 2.24975 9.0907 2.24958 8.22319 2.53146C6.47267 3.10024 5.10024 4.47267 4.53146 6.22319C4.24958 7.0907 4.24975 8.13192 4.25002 9.83819L4.25003 17.4214C4.25003 18.3511 4.25002 19.0942 4.29509 19.6664C4.33951 20.2303 4.43397 20.7651 4.72022 21.1894C5.29463 22.041 6.29573 22.5014 7.3161 22.3834C7.82459 22.3245 8.29212 22.0482 8.74912 21.715C9.21291 21.3768 9.7771 20.8932 10.483 20.2881L10.5088 20.266C11.1996 19.6739 11.3962 19.5218 11.5836 19.4556C11.8531 19.3604 12.147 19.3604 12.4165 19.4556C12.6038 19.5218 12.8005 19.6739 13.4912 20.266L13.517 20.2881C14.223 20.8932 14.7872 21.3768 15.2509 21.715C15.7079 22.0482 16.1755 22.3245 16.684 22.3834C17.7043 22.5014 18.7054 22.041 19.2798 21.1894C19.5661 20.7651 19.6606 20.2303 19.705 19.6664C19.75 19.0942 19.75 18.3512 19.75 17.4214L19.7501 9.8382C19.7503 8.13192 19.7505 7.09071 19.4686 6.22319C18.8998 4.47267 17.5274 3.10024 15.7769 2.53146C14.9094 2.24958 13.8682 2.24975 12.1619 2.25002H11.8382ZM8.68671 3.95804C9.29842 3.75929 10.0804 3.75003 12 3.75003C13.9197 3.75003 14.7016 3.75929 15.3134 3.95804C16.6072 4.37844 17.6216 5.39285 18.042 6.68671C18.2408 7.29842 18.25 8.08038 18.25 10V17.3874C18.25 18.3589 18.2495 19.0425 18.2096 19.5486C18.1685 20.0701 18.092 20.268 18.0363 20.3506C17.7752 20.7377 17.3202 20.947 16.8564 20.8933C16.7574 20.8819 16.5573 20.8111 16.1347 20.503C15.7245 20.2038 15.205 19.7594 14.4674 19.1271L14.3682 19.042C13.8261 18.5765 13.4034 18.2134 12.9162 18.0413C12.3234 17.8318 11.6767 17.8318 11.0839 18.0413C10.5967 18.2134 10.174 18.5765 9.63185 19.042L9.53263 19.1271C8.79502 19.7594 8.27561 20.2038 7.86538 20.503C7.44273 20.8111 7.24264 20.8819 7.1437 20.8933C6.6799 20.947 6.22485 20.7377 5.96376 20.3506C5.90805 20.268 5.83154 20.0701 5.79046 19.5486C5.75059 19.0425 5.75003 18.3589 5.75003 17.3874V10C5.75003 8.08038 5.75929 7.29842 5.95804 6.68671C6.37844 5.39285 7.39285 4.37844 8.68671 3.95804Z" fill="#2D264B"/>
</svg>
