<svg width="24" height="24" viewBox="0 0 24 24" fill="none" xmlns="http://www.w3.org/2000/svg">
<path d="M5.06107 4.95492C5.69469 4.49456 6.45858 4.25614 7.5 4.13266V5C7.5 5.82843 8.17157 6.5 9 6.5C9.82843 6.5 10.5 5.82843 10.5 5V4.00281C10.9641 4 11.4628 4 12 4C12.5372 4 13.0359 4 13.5 4.00281V5C13.5 5.82843 14.1716 6.5 15 6.5C15.8284 6.5 16.5 5.82843 16.5 5V4.13266C17.5414 4.25614 18.3053 4.49457 18.9389 4.95492C19.3634 5.26331 19.7367 5.6366 20.0451 6.06107C20.6094 6.83783 20.8403 7.81038 20.9347 9.25H3.06534C3.15974 7.81038 3.39057 6.83783 3.95491 6.06107C4.26331 5.6366 4.6366 5.26331 5.06107 4.95492Z" fill="#2D264B"/>
<path fill-rule="evenodd" clip-rule="evenodd" d="M3.0107 10.7498C3 11.4158 3 12.161 3 13C3 16.7497 3 18.6246 3.95491 19.9389C4.26331 20.3634 4.6366 20.7367 5.06107 21.0451C6.3754 22 8.25027 22 12 22C12.8389 22 13.584 22 14.25 21.9893L14.25 21.9192C14.2499 21.0672 14.2499 20.5482 14.3208 20.1005C14.7105 17.6401 16.6401 15.7105 19.1005 15.3208C19.5482 15.2499 20.0672 15.2499 20.9192 15.25L20.9893 15.25C21 14.584 21 13.8389 21 13C21 12.161 21 11.4158 20.9893 10.7498L20.971 10.75H3.02881L3.0107 10.7498ZM9 13.25C8.58579 13.25 8.25 13.5858 8.25 14C8.25 14.4142 8.58579 14.75 9 14.75H15C15.4142 14.75 15.75 14.4142 15.75 14C15.75 13.5858 15.4142 13.25 15 13.25H9Z" fill="#2D264B"/>
<path d="M18.9389 21.0451C18.1622 21.6094 17.1896 21.8403 15.75 21.9347C15.7501 21.0243 15.7535 20.6435 15.8023 20.3352C16.0904 18.5166 17.5166 17.0904 19.3352 16.8023C19.6435 16.7535 20.0243 16.7501 20.9347 16.75C20.8403 18.1896 20.6094 19.1622 20.0451 19.9389C19.7367 20.3634 19.3634 20.7367 18.9389 21.0451Z" fill="#2D264B"/>
<path d="M9.75 2C9.75 1.58579 9.41421 1.25 9 1.25C8.58579 1.25 8.25 1.58579 8.25 2V5C8.25 5.41421 8.58579 5.75 9 5.75C9.41421 5.75 9.75 5.41421 9.75 5V2Z" fill="#2D264B"/>
<path d="M15.75 2C15.75 1.58579 15.4142 1.25 15 1.25C14.5858 1.25 14.25 1.58579 14.25 2V5C14.25 5.41421 14.5858 5.75 15 5.75C15.4142 5.75 15.75 5.41421 15.75 5V2Z" fill="#2D264B"/>
</svg>
