<svg width="24" height="24" viewBox="0 0 24 24" fill="none" xmlns="http://www.w3.org/2000/svg">
<path d="M20.75 11.9984L15.952 16.7964C15.9193 16.8292 15.8849 16.8639 15.849 16.9002C15.4775 17.2755 14.9339 17.8249 14.2233 18.1664C13.5128 18.5079 12.7442 18.5893 12.2191 18.6448C12.1682 18.6502 12.1197 18.6554 12.0736 18.6605L11.9304 18.6764C10.9092 18.7901 9.89289 18.9033 9.05185 18.8762C8.10442 18.8456 6.895 18.631 5.91001 17.6461C4.92502 16.6611 4.71049 15.4517 4.67989 14.5042C4.65273 13.6632 4.76591 12.6469 4.87965 11.6257L4.89559 11.4824C4.9007 11.4364 4.90584 11.3879 4.91122 11.337C4.9668 10.812 5.04817 10.0433 5.38968 9.33275C5.73118 8.6222 6.28054 8.07852 6.65585 7.70709C6.69217 7.67114 6.72692 7.63675 6.75964 7.60403L12.1127 2.25102C11.7726 2.25 11.417 2.25 11.0453 2.25H10.9548C9.11822 2.24999 7.67861 2.24999 6.53648 2.37373C5.37094 2.50001 4.42656 2.76232 3.62024 3.34815C3.13209 3.70281 2.70281 4.13209 2.34815 4.62024C1.76232 5.42656 1.50001 6.37094 1.37373 7.53648C1.24999 8.67861 1.24999 10.1182 1.25 11.9547V12.0452C1.24999 13.8818 1.24999 15.3214 1.37373 16.4635C1.50001 17.6291 1.76232 18.5734 2.34815 19.3798C2.70281 19.8679 3.13209 20.2972 3.62024 20.6518C4.42656 21.2377 5.37094 21.5 6.53648 21.6263C7.67859 21.75 9.11817 21.75 10.9547 21.75H11.0453C12.8818 21.75 14.3214 21.75 15.4635 21.6263C16.6291 21.5 17.5734 21.2377 18.3798 20.6518C18.8679 20.2972 19.2972 19.8679 19.6518 19.3798C20.2377 18.5734 20.5 17.6291 20.6263 16.4635C20.75 15.3214 20.75 13.8818 20.75 12.0453V11.9984Z" fill="#191A2C"/>
<path d="M12.8475 3.99102L7.92473 8.91374C7.50385 9.33393 7.17106 9.66617 6.96696 10.0908C6.76286 10.5155 6.71132 10.9829 6.64613 11.574L6.62843 11.7338C6.50649 12.831 6.40598 13.7353 6.42898 14.4477C6.45304 15.1928 6.61405 15.8752 7.14745 16.4086C7.68084 16.942 8.36329 17.103 9.10834 17.1271C9.82071 17.1501 10.7251 17.0496 11.8222 16.9276L11.9821 16.9099C12.5732 16.8447 13.0406 16.7932 13.4652 16.5891C13.8899 16.385 14.2221 16.0522 14.6423 15.6313L19.5671 10.7065L19.0313 10.1928L13.3598 4.52127L12.8475 3.99102Z" fill="#191A2C"/>
<path d="M20.6268 9.6444C21.04 9.22493 21.3894 8.85285 21.6523 8.50824C22.0366 8.00463 22.3061 7.47256 22.3061 6.82843C22.3061 6.1843 22.0366 5.65222 21.6523 5.14862C21.2883 4.67149 20.7585 4.14172 20.1231 3.50641L20.0496 3.4329C19.4143 2.79756 18.8846 2.26776 18.4074 1.90373C17.9038 1.5195 17.3718 1.25 16.7276 1.25C16.0835 1.25 15.5514 1.5195 15.0478 1.90373C14.7026 2.16712 14.3299 2.51727 13.9095 2.9314L14.4341 3.4742L20.0808 9.12091L20.6268 9.6444Z" fill="#191A2C"/>
</svg>
