<svg width="24" height="24" viewBox="0 0 24 24" fill="none" xmlns="http://www.w3.org/2000/svg">
<path fill-rule="evenodd" clip-rule="evenodd" d="M16.7276 1.25C16.0835 1.25 15.5514 1.5195 15.0478 1.90373C14.5707 2.26776 14.0409 2.79756 13.4056 3.4329L7.92473 8.91374C7.50384 9.33393 7.17105 9.66617 6.96696 10.0908C6.76286 10.5155 6.71131 10.9829 6.64612 11.574L6.62843 11.7338C6.50649 12.831 6.40597 13.7353 6.42898 14.4477C6.45304 15.1928 6.61405 15.8752 7.14744 16.4086C7.68084 16.942 8.36328 17.103 9.10833 17.1271C9.82071 17.1501 10.7251 17.0496 11.8222 16.9276L11.9821 16.9099C12.5732 16.8447 13.0406 16.7932 13.4652 16.5891C13.8899 16.385 14.2221 16.0522 14.6423 15.6313L20.1231 10.1504C20.7585 9.51512 21.2883 8.98536 21.6523 8.50824C22.0366 8.00463 22.3061 7.47256 22.3061 6.82843C22.3061 6.1843 22.0366 5.65222 21.6523 5.14862C21.2883 4.6715 20.7585 4.14174 20.1232 3.50644L20.0497 3.43293C19.4143 2.79757 18.8846 2.26777 18.4074 1.90373C17.9038 1.5195 17.3718 1.25 16.7276 1.25ZM19.5548 8.59491L14.9611 4.00128C15.3668 3.60162 15.6805 3.30772 15.9577 3.09627C16.3279 2.81383 16.5433 2.75 16.7276 2.75C16.9119 2.75 17.1274 2.81383 17.4976 3.09627C17.8851 3.3919 18.3441 3.84867 19.0257 4.53033C19.7074 5.21199 20.1642 5.67101 20.4598 6.05849C20.7422 6.42866 20.8061 6.64413 20.8061 6.82843C20.8061 7.01272 20.7422 7.22819 20.4598 7.59836C20.2483 7.87551 19.9544 8.18927 19.5548 8.59491ZM13.8992 5.06066L18.4954 9.65685L13.6539 14.4983C13.1265 15.0258 12.9807 15.1577 12.8155 15.2372C12.6502 15.3166 12.4561 15.348 11.7147 15.4303C10.5448 15.5603 9.74843 15.647 9.15674 15.6279C8.58517 15.6094 8.35441 15.4943 8.2081 15.348C8.06179 15.2016 7.94665 14.9709 7.9282 14.3993C7.90909 13.8076 7.99571 13.0113 8.12571 11.8413C8.20808 11.1 8.23947 10.9059 8.31891 10.7406C8.39835 10.5753 8.53029 10.4296 9.05773 9.90213L13.8992 5.06066Z" fill="#191A2C"/>
<path d="M9.00899 3.92846C9.42317 3.9235 9.75491 3.58371 9.74995 3.16953C9.74498 2.75534 9.40519 2.42361 8.99101 2.42857C6.56449 2.45766 4.89894 2.59043 3.62024 3.51946C3.13209 3.87412 2.70281 4.3034 2.34815 4.79155C1.76232 5.59787 1.50001 6.54225 1.37373 7.70779C1.24999 8.84992 1.24999 10.2895 1.25 12.1261V12.2166C1.24999 14.0531 1.24999 15.4927 1.37373 16.6348C1.50001 17.8004 1.76232 18.7448 2.34815 19.5511C2.70281 20.0392 3.13209 20.4685 3.62024 20.8232C4.42656 21.409 5.37094 21.6713 6.53648 21.7976C7.67859 21.9213 9.11817 21.9213 10.9547 21.9213H11.0453C12.8818 21.9213 14.3214 21.9213 15.4635 21.7976C16.6291 21.6713 17.5734 21.409 18.3798 20.8232C18.8679 20.4685 19.2972 20.0392 19.6518 19.5511C20.5809 18.2724 20.7137 16.6068 20.7427 14.1803C20.7477 13.7661 20.416 13.4263 20.0018 13.4214C19.5876 13.4164 19.2478 13.7481 19.2428 14.1623C19.2129 16.6631 19.0445 17.835 18.4383 18.6694C18.1762 19.0302 17.8589 19.3475 17.4981 19.6096C16.9901 19.9787 16.3399 20.1939 15.302 20.3063C14.25 20.4203 12.8916 20.4213 11 20.4213C9.10843 20.4213 7.74999 20.4203 6.69804 20.3063C5.66013 20.1939 5.00992 19.9787 4.50191 19.6096C4.14111 19.3475 3.82382 19.0302 3.56168 18.6694C3.19259 18.1614 2.97745 17.5112 2.865 16.4733C2.75103 15.4213 2.75 14.0629 2.75 12.1713C2.75 10.2797 2.75103 8.9213 2.865 7.86936C2.97745 6.83144 3.19259 6.18123 3.56168 5.67322C3.82382 5.31242 4.14111 4.99513 4.50191 4.73299C5.33627 4.1268 6.50819 3.95844 9.00899 3.92846Z" fill="#191A2C"/>
</svg>
