<svg width="24" height="24" viewBox="0 0 24 24" fill="none" xmlns="http://www.w3.org/2000/svg">
<path d="M21.2293 10.1144C20.6533 9.1544 19.6932 7.8504 18.3572 6.7004L20.5273 4.53042C20.8203 4.23742 20.8203 3.76238 20.5273 3.46938C20.2343 3.17638 19.7593 3.17638 19.4663 3.46938L13.9332 9.0024L13.9312 9.00338L13.9302 9.00442L3.46524 19.4694C3.17224 19.7624 3.17224 20.2374 3.46524 20.5304C3.61124 20.6764 3.80324 20.7504 3.99524 20.7504C4.18724 20.7504 4.37924 20.6774 4.52524 20.5304L6.83524 18.2204C8.41924 19.2324 10.1522 19.7504 11.9972 19.7504C16.9442 19.7504 19.9032 16.0774 21.2282 13.8854C21.9262 12.7224 21.9263 11.2784 21.2293 10.1144ZM14.7472 12.0004C14.7472 13.5174 13.5132 14.7504 11.9972 14.7504C11.5192 14.7504 11.0682 14.6184 10.6662 14.3924L14.3882 10.6704C14.6152 11.0714 14.7472 11.5224 14.7472 12.0004ZM19.9453 13.1124C18.7853 15.0314 16.2102 18.2504 11.9992 18.2504C10.5582 18.2504 9.20125 17.8553 7.94025 17.1173L9.57523 15.4824C10.2782 15.9774 11.1132 16.2504 11.9963 16.2504C14.3393 16.2504 16.2463 14.3434 16.2463 12.0004C16.2463 11.1174 15.9732 10.2824 15.4782 9.57937L17.2952 7.76241C18.5272 8.80041 19.4142 10.0044 19.9432 10.8854C20.3542 11.5734 20.3543 12.4274 19.9453 13.1124ZM4.12824 15.7833C3.63024 15.1933 3.17324 14.5554 2.77024 13.8874C2.07424 12.7214 2.07423 11.2774 2.76923 10.1154C4.09423 7.92338 7.05325 4.25039 12.0002 4.25039C12.9562 4.25039 13.8802 4.38839 14.8252 4.67239C15.2212 4.79139 15.4472 5.20941 15.3272 5.60641C15.2082 6.00341 14.7903 6.22836 14.3933 6.10836C13.5903 5.86736 12.8072 5.75039 11.9992 5.75039C7.78924 5.75039 5.21323 8.96939 4.05323 10.8884C3.64423 11.5734 3.64424 12.4274 4.05524 13.1154C4.41624 13.7134 4.82623 14.2864 5.27423 14.8164C5.54123 15.1324 5.50125 15.6064 5.18525 15.8734C5.04425 15.9924 4.87324 16.0504 4.70224 16.0504C4.48824 16.0504 4.27624 15.9593 4.12824 15.7833ZM12.1882 8.43539C12.2512 8.84439 11.9713 9.22737 11.5613 9.29037C10.4013 9.46937 9.46724 10.4044 9.28824 11.5634C9.23124 11.9344 8.91225 12.1994 8.54825 12.1994C8.51025 12.1994 8.47123 12.1964 8.43323 12.1904C8.02323 12.1274 7.74325 11.7444 7.80625 11.3354C8.08825 9.50741 9.50626 8.09037 11.3333 7.80837C11.7363 7.74637 12.1242 8.02639 12.1882 8.43539Z" fill="#41416E"/>
</svg>
