<svg width="24" height="24" viewBox="0 0 24 24" fill="none" xmlns="http://www.w3.org/2000/svg">
<path d="M21.2286 10.116C19.9136 7.92597 16.9656 4.25 11.9996 4.25C7.03456 4.25 4.08555 7.92497 2.77055 10.116C2.07355 11.278 2.07355 12.721 2.77055 13.884C4.08655 16.074 7.03456 19.75 11.9996 19.75C16.9656 19.75 19.9136 16.075 21.2286 13.884C21.9266 12.722 21.9266 11.279 21.2286 10.116ZM19.9426 13.113C18.7906 15.032 16.2266 18.251 11.9996 18.251C7.77256 18.251 5.20856 15.032 4.05656 13.113C3.64556 12.427 3.64556 11.574 4.05656 10.889C5.20856 8.96998 7.77356 5.75098 11.9996 5.75098C16.2276 5.75098 18.7915 8.96998 19.9426 10.889C20.3546 11.574 20.3546 12.427 19.9426 13.113ZM11.9996 7.75098C9.65656 7.75098 7.74956 9.65798 7.74956 12.001C7.74956 14.344 9.65656 16.251 11.9996 16.251C14.3426 16.251 16.2496 14.344 16.2496 12.001C16.2496 9.65798 14.3426 7.75098 11.9996 7.75098ZM11.9996 14.751C10.4826 14.751 9.24956 13.518 9.24956 12.001C9.24956 10.484 10.4826 9.25098 11.9996 9.25098C13.5166 9.25098 14.7496 10.484 14.7496 12.001C14.7496 13.518 13.5166 14.751 11.9996 14.751Z" fill="#41416E"/>
</svg>
 