<svg width="24" height="24" viewBox="0 0 24 24" fill="none" xmlns="http://www.w3.org/2000/svg">
<path d="M20.4424 13.8746L21.0517 14.312L20.4424 13.8746ZM20.4424 10.1254L19.8332 10.5628L20.4424 10.1254ZM21.3262 12H20.5762H21.3262ZM2.88376 13.8746L3.49302 13.4372L2.88376 13.8746ZM2.88376 10.1254L2.2745 9.68801L2.88376 10.1254ZM2 12H1.25H2ZM2.2745 14.312C3.14271 15.5214 4.43472 17.1105 6.01482 18.4043C7.58634 19.691 9.52214 20.75 11.6631 20.75V19.25C10.0173 19.25 8.41219 18.4285 6.96509 17.2437C5.52657 16.0659 4.32229 14.5923 3.49302 13.4372L2.2745 14.312ZM11.6631 20.75C13.804 20.75 15.7398 19.691 17.3114 18.4043C18.8915 17.1105 20.1835 15.5214 21.0517 14.312L19.8332 13.4372C19.0039 14.5923 17.7996 16.0659 16.3611 17.2437C14.914 18.4285 13.3089 19.25 11.6631 19.25V20.75ZM21.0517 9.68801C20.1835 8.47865 18.8915 6.88946 17.3114 5.59571C15.7398 4.30899 13.804 3.25 11.6631 3.25V4.75C13.3089 4.75 14.914 5.57146 16.3611 6.75631C17.7996 7.93414 19.0039 9.40765 19.8332 10.5628L21.0517 9.68801ZM11.6631 3.25C9.52214 3.25 7.58634 4.30899 6.01482 5.59572C4.43472 6.88946 3.1427 8.47865 2.2745 9.68801L3.49302 10.5628C4.32228 9.40765 5.52657 7.93414 6.96509 6.75631C8.41219 5.57146 10.0173 4.75 11.6631 4.75V3.25ZM21.0517 14.312C21.6061 13.5398 22.0762 12.9286 22.0762 12H20.5762C20.5762 12.3585 20.4571 12.5681 19.8332 13.4372L21.0517 14.312ZM19.8332 10.5628C20.4571 11.4319 20.5762 11.6415 20.5762 12H22.0762C22.0762 11.0714 21.6061 10.4602 21.0517 9.68801L19.8332 10.5628ZM3.49302 13.4372C2.86905 12.5681 2.75 12.3585 2.75 12H1.25C1.25 12.9286 1.72012 13.5398 2.2745 14.312L3.49302 13.4372ZM2.2745 9.68801C1.72012 10.4602 1.25 11.0714 1.25 12H2.75C2.75 11.6415 2.86905 11.4319 3.49302 10.5628L2.2745 9.68801ZM7.91309 12C7.91309 14.0711 9.59202 15.75 11.6631 15.75V14.25C10.4205 14.25 9.41309 13.2426 9.41309 12H7.91309ZM11.6631 15.75C13.7342 15.75 15.4131 14.0711 15.4131 12H13.9131C13.9131 13.2426 12.9057 14.25 11.6631 14.25V15.75ZM15.4131 12C15.4131 9.92893 13.7342 8.25 11.6631 8.25V9.75C12.9057 9.75 13.9131 10.7574 13.9131 12H15.4131ZM11.6631 8.25C9.59202 8.25 7.91309 9.92893 7.91309 12H9.41309C9.41309 10.7574 10.4205 9.75 11.6631 9.75V8.25Z" fill="#2D264B"/>
</svg>
