<svg width="24" height="24" viewBox="0 0 24 24" fill="none" xmlns="http://www.w3.org/2000/svg">
<path d="M3.25 5C3.25 3.48122 4.48122 2.25 6 2.25C7.51878 2.25 8.75 3.48122 8.75 5C8.75 6.51878 7.51878 7.75 6 7.75C4.48122 7.75 3.25 6.51878 3.25 5Z" fill="#2D264B"/>
<path d="M11.25 5C11.25 4.58579 11.5858 4.25 12 4.25L20 4.25C20.4142 4.25 20.75 4.58579 20.75 5C20.75 5.41421 20.4142 5.75 20 5.75L12 5.75C11.5858 5.75 11.25 5.41421 11.25 5Z" fill="#2D264B"/>
<path d="M15.25 12C15.25 10.4812 16.4812 9.25 18 9.25C19.5188 9.25 20.75 10.4812 20.75 12C20.75 13.5188 19.5188 14.75 18 14.75C16.4812 14.75 15.25 13.5188 15.25 12Z" fill="#2D264B"/>
<path d="M3.25 12C3.25 11.5858 3.58579 11.25 4 11.25L12 11.25C12.4142 11.25 12.75 11.5858 12.75 12C12.75 12.4142 12.4142 12.75 12 12.75L4 12.75C3.58579 12.75 3.25 12.4142 3.25 12Z" fill="#2D264B"/>
<path d="M3.25 19C3.25 17.4812 4.48122 16.25 6 16.25C7.51878 16.25 8.75 17.4812 8.75 19C8.75 20.5188 7.51878 21.75 6 21.75C4.48122 21.75 3.25 20.5188 3.25 19Z" fill="#2D264B"/>
<path d="M11.25 19C11.25 18.5858 11.5858 18.25 12 18.25H20C20.4142 18.25 20.75 18.5858 20.75 19C20.75 19.4142 20.4142 19.75 20 19.75H12C11.5858 19.75 11.25 19.4142 11.25 19Z" fill="#2D264B"/>
</svg>
