<svg width="24" height="24" viewBox="0 0 24 24" fill="none" xmlns="http://www.w3.org/2000/svg">
<path fill-rule="evenodd" clip-rule="evenodd" d="M11 6.25C9.48122 6.25 8.25 7.48122 8.25 9C8.25 10.5188 9.48122 11.75 11 11.75C12.5188 11.75 13.75 10.5188 13.75 9C13.75 7.48122 12.5188 6.25 11 6.25ZM9.75 9C9.75 8.30964 10.3096 7.75 11 7.75C11.6904 7.75 12.25 8.30964 12.25 9C12.25 9.69036 11.6904 10.25 11 10.25C10.3096 10.25 9.75 9.69036 9.75 9Z" fill="#2D264B"/>
<path fill-rule="evenodd" clip-rule="evenodd" d="M16.4635 2.37373C15.3214 2.24999 13.8818 2.24999 12.0452 2.25H11.9548C10.1182 2.24999 8.67861 2.24999 7.53648 2.37373C6.37094 2.50001 5.42656 2.76232 4.62024 3.34815C4.13209 3.70281 3.70281 4.13209 3.34815 4.62024C2.76232 5.42656 2.50001 6.37094 2.37373 7.53648C2.24999 8.67861 2.24999 10.1182 2.25 11.9548V12.0452C2.24999 13.8818 2.24999 15.3214 2.37373 16.4635C2.50001 17.6291 2.76232 18.5734 3.34815 19.3798C3.36102 19.3975 3.37399 19.4151 3.38706 19.4327C3.73405 19.899 4.14981 20.3101 4.62024 20.6518C5.42656 21.2377 6.37094 21.5 7.53648 21.6263C8.67859 21.75 10.1182 21.75 11.9547 21.75H12.0453C13.8818 21.75 15.3214 21.75 16.4635 21.6263C17.6291 21.5 18.5734 21.2377 19.3798 20.6518C19.8679 20.2972 20.2972 19.8679 20.6518 19.3798C21.5217 18.1825 21.6903 16.6546 21.7348 14.5005C21.75 13.7682 21.75 12.9403 21.75 12.006V11.9547C21.75 10.1182 21.75 8.67859 21.6263 7.53648C21.5 6.37094 21.2377 5.42656 20.6518 4.62024C20.2972 4.13209 19.8679 3.70281 19.3798 3.34815C18.5734 2.76232 17.6291 2.50001 16.4635 2.37373ZM5.50191 4.56168C6.00992 4.19259 6.66013 3.97745 7.69804 3.865C8.74999 3.75103 10.1084 3.75 12 3.75C13.8916 3.75 15.25 3.75103 16.302 3.865C17.3399 3.97745 17.9901 4.19259 18.4981 4.56168C18.8589 4.82382 19.1762 5.14111 19.4383 5.50191C19.8074 6.00992 20.0225 6.66013 20.135 7.69804C20.249 8.74999 20.25 10.1084 20.25 12C20.25 12.255 20.25 12.5006 20.2497 12.7373C20.1438 12.6476 20.0435 12.5687 19.9448 12.4986C17.4737 10.7441 14.0651 11.2087 12.1537 13.5606C11.9951 13.7558 11.8432 13.9843 11.6711 14.2694L11.5462 14.2444C10.4471 14.0244 9.77404 13.8897 9.14216 13.9032C7.45369 13.939 5.86636 14.7154 4.80143 16.0261C4.53101 16.359 4.30278 16.7487 4.02741 17.2781C3.95858 16.9948 3.90522 16.6732 3.865 16.302C3.75103 15.25 3.75 13.8916 3.75 12C3.75 10.1084 3.75103 8.74999 3.865 7.69804C3.97745 6.66013 4.19259 6.00992 4.56168 5.50191C4.82382 5.14111 5.14111 4.82382 5.50191 4.56168ZM19.0764 13.7217C19.3239 13.8974 19.6104 14.1728 20.2273 14.7882C20.1701 16.7589 19.972 17.7636 19.4383 18.4981C19.1762 18.8589 18.8589 19.1762 18.4981 19.4383C17.9901 19.8074 17.3399 20.0225 16.302 20.135C15.25 20.249 13.8916 20.25 12 20.25C11.2582 20.25 10.5984 20.2498 10.0069 20.2428L12.3256 16.1404C12.4556 15.9105 12.5685 15.7108 12.6693 15.5345C12.9887 14.9758 13.1615 14.699 13.3178 14.5066C14.7305 12.7683 17.25 12.4249 19.0764 13.7217ZM8.34708 20.131C8.33655 20.1496 8.3269 20.1685 8.31812 20.1876C8.09986 20.1735 7.89365 20.1562 7.69804 20.135C6.66013 20.0225 6.00992 19.8074 5.50191 19.4383C5.28075 19.2776 5.07593 19.0962 4.89014 18.8968C5.45192 17.7732 5.68417 17.3184 5.96564 16.972C6.75276 16.0031 7.92601 15.4293 9.17401 15.4028C9.55888 15.3947 9.98434 15.4647 10.8842 15.6422L8.34708 20.131Z" fill="#2D264B"/>
</svg>
