<svg width="24" height="24" viewBox="0 0 24 24" fill="none" xmlns="http://www.w3.org/2000/svg">
<path d="M6.32227 7.43561L5.79712 6.90015H5.79712L6.32227 7.43561ZM13.042 12.4686L12.4904 11.9605L12.4904 11.9605L13.042 12.4686ZM12 17.25C9.33562 17.25 7.83763 16.8856 6.98074 16.1511C6.16145 15.4489 5.75 14.2437 5.75 12H4.25C4.25 14.3446 4.66208 16.1393 6.00455 17.29C7.30943 18.4085 9.31144 18.75 12 18.75V17.25ZM18.25 12C18.25 14.2437 17.8385 15.4489 17.0193 16.1511C16.1624 16.8856 14.6644 17.25 12 17.25V18.75C14.6886 18.75 16.6906 18.4085 17.9954 17.29C19.3379 16.1393 19.75 14.3446 19.75 12H18.25ZM12 6.75C14.8135 6.75 16.3221 7.15654 17.1526 7.97107L18.2029 6.90015C16.9059 5.62816 14.8304 5.25 12 5.25V6.75ZM17.1526 7.97107C17.8812 8.68569 18.25 9.87811 18.25 12H19.75C19.75 9.78306 19.3823 8.05691 18.2029 6.90015L17.1526 7.97107ZM5.75 12C5.75 9.87811 6.11877 8.68569 6.84742 7.97107L5.79712 6.90015C4.61766 8.05691 4.25 9.78306 4.25 12H5.75ZM6.84742 7.97107C7.67795 7.15654 9.18647 6.75 12 6.75V5.25C9.16962 5.25 7.09409 5.62816 5.79712 6.90015L6.84742 7.97107ZM10.4063 12.9767C11.2788 13.9241 12.7211 13.9241 13.5937 12.9767L12.4904 11.9605C12.2119 12.2628 11.788 12.2628 11.5096 11.9605L10.4063 12.9767ZM5.77062 7.94372L10.4063 12.9767L11.5096 11.9605L6.87393 6.92751L5.77062 7.94372ZM13.5937 12.9767L18.2294 7.94372L17.1261 6.9275L12.4904 11.9605L13.5937 12.9767Z" fill="#001A72"/>
</svg>
