<svg width="24" height="24" viewBox="0 0 24 24" fill="none" xmlns="http://www.w3.org/2000/svg">
<path d="M18.5789 7.84948C15.5842 6.34256 11.8404 6.84052 9.34067 9.34336C6.90282 11.7843 6.36948 15.41 7.74065 18.3693C7.55027 18.277 7.36178 18.1736 7.17572 18.0585C6.99099 17.9441 6.89863 17.887 6.82879 17.8593C6.69526 17.8064 6.59399 17.791 6.4508 17.8021C6.37591 17.8079 6.29107 17.8299 6.1214 17.874C5.05352 18.1511 4.51952 18.2897 4.13486 18.2113C3.46722 18.0753 2.94545 17.5528 2.80957 16.8843C2.73129 16.4992 2.86968 15.9646 3.14647 14.8954C3.19046 14.7254 3.21246 14.6404 3.21823 14.5652C3.22921 14.4218 3.2136 14.3192 3.16046 14.1856C3.13258 14.1155 3.07559 14.0237 2.9616 13.8401C0.903193 10.5236 2.49621 6.50314 4.50699 4.48982C7.82258 1.17006 13.1982 1.17006 16.5138 4.48982C17.489 5.46626 18.1774 6.62113 18.5789 7.84948Z" fill="#2D264B"/>
<path fill-rule="evenodd" clip-rule="evenodd" d="M17.7383 21.2246C15.0046 22.9161 11.6364 21.5411 10.0481 19.9508C7.31764 17.2169 7.31764 12.7844 10.0481 10.0504C12.7786 7.31652 17.2056 7.31652 19.9361 10.0504C21.592 11.7085 22.9039 15.0195 21.2088 17.7506C21.1149 17.9019 21.0679 17.9775 21.045 18.0352C21.0012 18.1453 20.9884 18.2297 20.9974 18.3478C21.0022 18.4098 21.0203 18.4797 21.0565 18.6197C21.2844 19.5002 21.3984 19.9405 21.334 20.2577C21.2221 20.8082 20.7924 21.2384 20.2425 21.3505C19.9258 21.415 19.486 21.3009 18.6066 21.0727C18.4669 21.0364 18.397 21.0183 18.3353 21.0135C18.2174 21.0044 18.134 21.017 18.024 21.0606C17.9665 21.0834 17.8904 21.1305 17.7383 21.2246ZM13.0003 15C13.0003 15.5523 12.5525 16 12.0003 16C11.448 16 11.0003 15.5523 11.0003 15C11.0003 14.4477 11.448 14 12.0003 14C12.5525 14 13.0003 14.4477 13.0003 15ZM16.0003 15C16.0003 15.5523 15.5525 16 15.0003 16C14.448 16 14.0003 15.5523 14.0003 15C14.0003 14.4477 14.448 14 15.0003 14C15.5525 14 16.0003 14.4477 16.0003 15ZM18.0003 16C18.5525 16 19.0003 15.5523 19.0003 15C19.0003 14.4477 18.5525 14 18.0003 14C17.448 14 17.0003 14.4477 17.0003 15C17.0003 15.5523 17.448 16 18.0003 16Z" fill="#2D264B"/>
</svg>
