<svg width="24" height="24" viewBox="0 0 24 24" fill="none" xmlns="http://www.w3.org/2000/svg">
<path d="M6.53279 21.8125L6.76174 21.0983L6.53279 21.8125ZM3.30996 18.615L4.02233 18.3804L3.30996 18.615ZM20.8204 18.5459L20.1062 18.317L20.8204 18.5459ZM17.6229 21.7688L17.3883 21.0564L17.6229 21.7688ZM17.5696 8.2583L17.3406 8.9725L17.5696 8.2583ZM20.7924 11.4558L20.0801 11.6904L20.7924 11.4558ZM6.47951 8.30203L6.71409 9.0144L6.47951 8.30203ZM3.282 11.5249L3.9962 11.7538L3.282 11.5249ZM10.0266 8.79333L14.0265 8.77756L14.0206 7.27757L10.0206 7.29334L10.0266 8.79333ZM14.0758 21.2775L10.0759 21.2932L10.0818 22.7932L14.0817 22.7774L14.0758 21.2775ZM10.0759 21.2932C8.15621 21.3008 7.37423 21.2946 6.76174 21.0983L6.30384 22.5267C7.19959 22.8138 8.27888 22.8003 10.0818 22.7932L10.0759 21.2932ZM2.30127 15.0738C2.30838 16.8767 2.30338 17.9561 2.59758 18.8495L4.02233 18.3804C3.82116 17.7695 3.80883 16.9876 3.80126 15.0679L2.30127 15.0738ZM6.76174 21.0983C5.46623 20.683 4.44783 19.6726 4.02233 18.3804L2.59758 18.8495C3.17326 20.5978 4.55109 21.9648 6.30384 22.5267L6.76174 21.0983ZM20.3011 15.0029C20.3087 16.9225 20.3025 17.7045 20.1062 18.317L21.5346 18.7749C21.8217 17.8791 21.8082 16.7998 21.8011 14.9969L20.3011 15.0029ZM14.0817 22.7774C15.8846 22.7703 16.964 22.7753 17.8574 22.4811L17.3883 21.0564C16.7774 21.2576 15.9955 21.2699 14.0758 21.2775L14.0817 22.7774ZM20.1062 18.317C19.6909 19.6125 18.6805 20.6309 17.3883 21.0564L17.8574 22.4811C19.6057 21.9055 20.9727 20.5276 21.5346 18.7749L20.1062 18.317ZM21.8011 14.9969C21.794 13.1941 21.799 12.1147 21.5048 11.2212L20.0801 11.6904C20.2812 12.3013 20.2936 13.0832 20.3011 15.0029L21.8011 14.9969ZM17.3406 8.9725C18.6362 9.38779 19.6546 10.3982 20.0801 11.6904L21.5048 11.2212C20.9291 9.47298 19.5513 8.10597 17.7985 7.5441L17.3406 8.9725ZM3.80126 15.0679C3.79369 13.1483 3.79986 12.3663 3.9962 11.7538L2.5678 11.2959C2.28065 12.1917 2.29416 13.2709 2.30127 15.0738L3.80126 15.0679ZM6.24494 7.58966C4.49668 8.16533 3.12967 9.54316 2.5678 11.2959L3.9962 11.7538C4.4115 10.4583 5.42189 9.4399 6.71409 9.0144L6.24494 7.58966ZM16.2696 7.0187L16.2736 8.01869L17.7735 8.01277L17.7696 7.01278L16.2696 7.0187ZM7.77362 8.05221L7.76968 7.05221L6.26969 7.05813L6.27363 8.05812L7.77362 8.05221ZM12.0029 2.78549C14.3501 2.77623 16.2604 4.67151 16.2696 7.0187L17.7696 7.01278C17.7571 3.83717 15.1726 1.27298 11.997 1.2855L12.0029 2.78549ZM11.997 1.2855C8.82136 1.29802 6.25717 3.88252 6.26969 7.05813L7.76968 7.05221C7.76042 4.70502 9.6557 2.79474 12.0029 2.78549L11.997 1.2855ZM9.30121 15.0462C9.3072 16.565 10.5433 17.7914 12.062 17.7854L12.0561 16.2854C11.3658 16.2881 10.8039 15.7307 10.8012 15.0403L9.30121 15.0462ZM12.062 17.7854C13.5808 17.7794 14.8072 16.5433 14.8012 15.0245L13.3012 15.0305C13.3039 15.7208 12.7465 16.2827 12.0561 16.2854L12.062 17.7854ZM14.8012 15.0245C14.7952 13.5058 13.5591 12.2794 12.0403 12.2854L12.0463 13.7854C12.7366 13.7827 13.2985 14.3401 13.3012 15.0305L14.8012 15.0245ZM12.0403 12.2854C10.5216 12.2914 9.29522 13.5275 9.30121 15.0462L10.8012 15.0403C10.7985 14.35 11.3559 13.7881 12.0463 13.7854L12.0403 12.2854ZM10.0206 7.29334C8.60919 7.29891 7.64845 7.30008 6.89657 7.4298L7.15159 8.90796C7.74879 8.80493 8.55472 8.79913 10.0266 8.79333L10.0206 7.29334ZM6.89657 7.4298C6.66903 7.46905 6.45409 7.52079 6.24494 7.58966L6.71409 9.0144C6.84409 8.97159 6.98645 8.93645 7.15159 8.90796L6.89657 7.4298ZM6.27363 8.05812L6.27408 8.17184L7.77407 8.16592L7.77362 8.05221L6.27363 8.05812ZM14.0265 8.77756C15.4984 8.77175 16.3043 8.77119 16.9023 8.86951L17.1457 7.38938C16.3928 7.2656 15.4321 7.272 14.0206 7.27757L14.0265 8.77756ZM16.9023 8.86951C17.0677 8.8967 17.2103 8.93072 17.3406 8.9725L17.7985 7.5441C17.5889 7.47688 17.3735 7.42684 17.1457 7.38938L16.9023 8.86951ZM16.2736 8.01869L16.274 8.1324L17.774 8.12649L17.7735 8.01277L16.2736 8.01869Z" fill="#2D264B"/>
</svg>
