<svg width="24" height="24" viewBox="0 0 24 24" fill="none" xmlns="http://www.w3.org/2000/svg">
<path d="M14.7103 7.64541C14.5774 7.25309 14.1516 7.04279 13.7593 7.17568C13.367 7.30857 13.1567 7.73434 13.2896 8.12666C13.7207 9.39931 14.9433 10.2337 16.2924 10.2337C16.7066 10.2337 17.0424 9.89787 17.0424 9.48366C17.0424 9.06945 16.7066 8.73366 16.2924 8.73366C15.5529 8.73366 14.9246 8.27803 14.7103 7.64541Z" fill="#2D264B"/>
<path fill-rule="evenodd" clip-rule="evenodd" d="M16.1643 4.27559C14.8535 0.241469 9.14631 0.241469 7.83555 4.27559C7.45017 5.46167 6.34488 6.26471 5.09776 6.26471C0.856037 6.26471 -0.907588 11.6926 2.52404 14.1858C3.53298 14.9188 3.95516 16.2182 3.56978 17.4043C2.25902 21.4384 6.87624 24.793 10.3079 22.2998C11.3168 21.5667 12.683 21.5667 13.692 22.2998C17.1236 24.793 21.7408 21.4384 20.4301 17.4043C20.0447 16.2182 20.4669 14.9188 21.4758 14.1858C24.9074 11.6926 23.1438 6.26471 18.9021 6.26471C17.655 6.26471 16.5497 5.46167 16.1643 4.27559ZM9.26213 4.73912C10.1239 2.08696 13.876 2.08696 14.7377 4.73912C15.3239 6.54323 17.0051 7.76471 18.9021 7.76471C21.6907 7.76471 22.8502 11.3332 20.5941 12.9723C19.0594 14.0873 18.4173 16.0637 19.0035 17.8678C19.8652 20.52 16.8297 22.7254 14.5736 21.0863C13.039 19.9713 10.9609 19.9712 9.4262 21.0863C7.17014 22.7254 4.13463 20.52 4.99637 17.8678C5.58256 16.0637 4.94039 14.0873 3.40572 12.9723C1.14966 11.3332 2.30912 7.76471 5.09776 7.76471C6.99472 7.76471 8.67594 6.54323 9.26213 4.73912Z" fill="#2D264B"/>
</svg>
