<svg width="24" height="24" viewBox="0 0 24 24" fill="none" xmlns="http://www.w3.org/2000/svg">
<path d="M15.6365 12.1137C15.2222 12.1137 14.8865 12.4494 14.8865 12.8637C14.8865 13.2779 15.2222 13.6137 15.6365 13.6137H18.3637C18.7779 13.6137 19.1137 13.2779 19.1137 12.8637C19.1137 12.4494 18.7779 12.1137 18.3637 12.1137H15.6365Z" fill="#2D264B"/>
<path fill-rule="evenodd" clip-rule="evenodd" d="M19.6476 3.37747C19.725 3.82143 19.7437 4.34902 19.7489 4.95264C19.8357 4.99789 19.9208 5.04606 20.0045 5.09732C20.7782 5.57144 21.4287 6.22194 21.9028 6.99564C22.4248 7.84749 22.6146 8.83477 22.693 10.0896C22.7501 11.0025 22.7501 12.1128 22.7501 13.4765V13.5048C22.7501 14.2868 22.7501 14.9834 22.7398 15.6034C22.7078 17.5313 22.583 18.8944 21.9028 20.0044C21.4287 20.7781 20.7782 21.4286 20.0045 21.9027C19.2656 22.3554 18.4275 22.5572 17.404 22.6545C16.3998 22.75 15.1429 22.75 13.5395 22.75H10.4607C8.85738 22.75 7.60037 22.75 6.5962 22.6545C5.57265 22.5572 4.73455 22.3554 3.99573 21.9027C3.22203 21.4286 2.57153 20.7781 2.09741 20.0044C1.64466 19.2656 1.44288 18.4274 1.34556 17.4039C1.25008 16.3997 1.25009 15.1427 1.2501 13.5394L1.25018 13.0136C1.237 12.5195 1.24104 11.967 1.24541 11.3713C1.24771 11.0574 1.2501 10.7314 1.2501 10.3956L1.2501 10.3523C1.25009 8.64004 1.25008 7.29622 1.36092 6.22968C1.47397 5.14188 1.70904 4.25462 2.23922 3.49386C2.55954 3.03422 2.94815 2.62873 3.39147 2.29294C4.12978 1.73371 4.99376 1.4851 6.04738 1.36609C7.0753 1.24999 8.36846 1.24999 10.0066 1.25L15.4746 1.25C16.2732 1.24997 16.95 1.24994 17.4896 1.32557C18.066 1.40636 18.5949 1.58607 19.0181 2.02728C19.3855 2.41026 19.5595 2.87228 19.6476 3.37747ZM15.4219 2.75C16.2876 2.75 16.8582 2.75173 17.2814 2.81105C17.6797 2.86688 17.8347 2.96039 17.9356 3.06563C18.029 3.16295 18.1132 3.30988 18.1699 3.63506C18.2078 3.85249 18.2284 4.11824 18.2394 4.45819C17.8266 4.38265 17.3812 4.33609 16.896 4.30615C15.986 4.25 14.8801 4.25 13.5233 4.25H10.4607C8.85735 4.25 7.60039 4.24999 6.5962 4.34547C5.57265 4.44279 4.73455 4.64457 3.99573 5.09732C3.59745 5.34139 3.23181 5.6322 2.90608 5.96249C3.01584 5.23516 3.19559 4.74505 3.46986 4.35149C3.70144 4.01919 3.98085 3.72824 4.29716 3.48865C4.73489 3.15709 5.29774 2.9603 6.21573 2.85661C7.14969 2.75112 8.35816 2.75 10.0532 2.75H15.4219ZM4.77948 6.37628C5.243 6.09224 5.82443 5.92562 6.73818 5.83874C7.6631 5.7508 8.84886 5.75 10.5001 5.75H13.5001C14.8847 5.75 15.945 5.75033 16.8036 5.80331C17.6614 5.85624 18.2611 5.95942 18.7338 6.13895C18.9109 6.2062 19.0711 6.28461 19.2207 6.37628C19.7926 6.72672 20.2734 7.20752 20.6238 7.77939C20.8704 8.18183 21.0276 8.671 21.1217 9.38638H15.6365C13.716 9.38638 12.1592 10.9432 12.1592 12.8637C12.1592 14.7841 13.716 16.3409 15.6365 16.3409H21.2194C21.1617 17.8013 21.0023 18.603 20.6238 19.2206C20.2734 19.7925 19.7926 20.2733 19.2207 20.6237C18.7572 20.9078 18.1758 21.0744 17.262 21.1613C16.3371 21.2492 15.1513 21.25 13.5001 21.25H10.5001C8.84886 21.25 7.6631 21.2492 6.73818 21.1613C5.82443 21.0744 5.243 20.9078 4.77948 20.6237C4.20762 20.2733 3.72681 19.7925 3.37637 19.2206C3.09233 18.7571 2.92571 18.1757 2.83883 17.2619C2.75089 16.337 2.7501 15.1512 2.7501 13.5C2.7501 11.8488 2.75089 10.663 2.83883 9.73809C2.92571 8.82434 3.09233 8.24291 3.37637 7.77939C3.72681 7.20752 4.20762 6.72672 4.77948 6.37628ZM13.6592 12.8637C13.6592 11.7716 14.5444 10.8864 15.6365 10.8864H21.2277C21.2499 11.6103 21.2501 12.4644 21.2501 13.5C21.2501 13.9839 21.2501 14.429 21.2477 14.8409H15.6365C14.5444 14.8409 13.6592 13.9557 13.6592 12.8637Z" fill="#2D264B"/>
</svg>
